<svg width="1024" height="1024" viewBox="0 0 1024 1024" fill="none" xmlns="http://www.w3.org/2000/svg">
<rect width="1024" height="1024" rx="255" fill="white"/>
<path d="M252.226 479.025H181.848C198.344 403.825 251.18 382.692 275.536 381.525H583.499C561.982 436.325 527.316 455.692 512.672 458.525H275.536C265.495 458.525 255.812 472.192 252.226 479.025Z" fill="black"/>
<path d="M794.912 446.525V429.525H784.602V387.025H794.912V366.025H803.877V387.025H814.188V429.525H803.877V446.525H794.912Z" fill="black"/>
<path d="M155.4 566.525C167.234 530.925 195.893 523.025 208.744 523.525H418.535C406.88 548.192 376.039 597.525 345.915 597.525C315.791 597.525 263.433 598.525 241.02 599.025C235.341 598.859 222.102 602.925 214.571 620.525C207.041 638.125 201.572 656.525 199.778 663.525H371.018C401.791 661.955 420.727 636.189 454.845 604.025C495.496 560.319 515.425 557.669 540.017 558.025C562.457 557.669 584.51 560.319 621.603 604.025C661.677 646.101 676.74 664.525 700.498 663.525C710.809 663.525 738.602 663.525 761.912 604.025L863.669 383.025L836.325 368.025C860.681 350.025 910.29 313.425 913.876 311.025C917.462 308.625 919.853 312.025 920.6 314.025V419.025L895.497 400.525C861.279 478.359 796.877 626.325 778.946 663.525C761.015 700.725 726.199 723.859 710.36 723.525C686.602 724.525 661.677 723.601 621.603 681.525C584.51 637.819 562.457 620.169 540.017 620.525C515.425 620.169 495.496 636.819 454.845 680.525C420.727 712.689 401.791 728.955 371.018 730.525H103.4C115.802 690.692 143.565 602.125 155.4 566.525Z" fill="black"/>
<path d="M689.568 616.525H681.499V596.025H668.499V532.525H681.499V500.025H689.568V532.525H701.223V596.025H689.568V616.525Z" fill="black"/>
<path d="M749.36 547.525H739.498V520.025H723.36V431.525H739.498V401.025H749.36V431.525H763.705V520.025H749.36V547.525Z" fill="black"/>
</svg>
