<svg width="1024" height="1024" viewBox="0 0 1024 1024" fill="none" xmlns="http://www.w3.org/2000/svg">
<rect width="1024" height="1024" rx="255" fill="white"/>
<path d="M578.293 385.025C557.215 434.867 525.349 452.328 512.313 455.025H275.536C269.019 455.026 263.213 459.36 258.943 463.781C255.246 467.611 252.185 472.045 250.166 475.525H186.254C203.382 405.527 253.155 386.135 275.639 385.025H578.293Z" stroke="url(#paint0_linear_8_54)" stroke-width="7"/>
<path d="M800.377 369.525V390.525H810.688V426.025H800.377V443.025H798.412V426.025H788.102V390.525H798.412V369.525H800.377Z" stroke="url(#paint1_linear_8_54)" stroke-width="7"/>
<path d="M916.292 313.74C916.429 313.837 916.632 314.034 916.851 314.353C916.945 314.491 917.028 314.632 917.1 314.768V412.098L897.573 397.708L894.052 395.113L892.293 399.117C858.044 477.02 793.689 624.879 775.794 662.006C767.08 680.082 754.244 694.768 741.675 704.873C735.394 709.923 729.232 713.786 723.753 716.352C718.205 718.95 713.626 720.093 710.434 720.026L710.324 720.024L710.214 720.028C698.453 720.523 686.865 720.512 673.337 715.404C659.784 710.287 643.974 699.927 624.194 679.171C605.653 657.329 590.687 641.773 577.431 631.714C564.124 621.615 552.267 616.846 540.018 617.025C526.778 616.845 514.934 621.296 501.39 631.174C487.965 640.965 472.635 656.262 452.363 678.055C418.184 710.272 400.15 725.506 370.923 727.025H108.158C121.148 685.346 147.33 601.896 158.721 567.63C169.975 533.776 197.013 526.572 208.608 527.023L208.675 527.025H412.913C406.89 538.83 397.521 554.351 386.469 567.526C380.124 575.09 373.312 581.775 366.353 586.545C359.379 591.325 352.49 594.025 345.916 594.025C315.773 594.025 263.439 595.024 240.996 595.524C233.815 595.376 219.395 600.357 211.354 619.148C203.737 636.949 198.215 655.526 196.388 662.657L195.269 667.025H371.108L371.197 667.021C387.645 666.182 400.778 658.839 413.912 647.941C426.841 637.214 440.478 622.379 457.246 606.572L457.33 606.493L457.408 606.409C477.599 584.7 492.381 573.484 504.923 567.679C517.35 561.927 527.853 561.35 539.966 561.525L540.019 561.526L540.073 561.525C551.089 561.35 561.584 561.923 573.828 567.671C586.158 573.459 600.563 584.643 618.934 606.29L618.999 606.367L619.068 606.439C638.98 627.346 652.982 642.71 664.934 652.623C677.028 662.652 687.54 667.551 700.566 667.024C705.949 667.024 716.295 666.988 728.272 659C740.202 651.043 753.328 635.491 765.134 605.391L866.848 384.489L868.214 381.526L865.353 379.957L842.807 367.589C868.32 348.741 912.526 316.141 915.823 313.934C916.033 313.794 916.171 313.735 916.244 313.712C916.256 313.719 916.273 313.727 916.292 313.74ZM686.068 503.525V536.025H697.722V592.525H686.068V613.025H684.999V592.525H671.999V536.025H684.999V503.525H686.068ZM745.86 404.525V435.025H760.205V516.525H745.86V544.025H742.999V516.525H726.861V435.025H742.999V404.525H745.86Z" stroke="url(#paint2_linear_8_54)" stroke-width="7"/>
<defs>
<linearGradient id="paint0_linear_8_54" x1="431.086" y1="505.115" x2="413.425" y2="374.532" gradientUnits="userSpaceOnUse">
<stop stop-color="#AC77FF"/>
<stop offset="0.5" stop-color="#8B5CF6"/>
<stop offset="1" stop-color="#62249E"/>
</linearGradient>
<linearGradient id="paint1_linear_8_54" x1="802.961" y1="468.066" x2="752.497" y2="434.777" gradientUnits="userSpaceOnUse">
<stop stop-color="#AC77FF"/>
<stop offset="0.5" stop-color="#8B5CF6"/>
<stop offset="1" stop-color="#62249E"/>
</linearGradient>
<linearGradient id="paint2_linear_8_54" x1="610.5" y1="843" x2="458.696" y2="313.254" gradientUnits="userSpaceOnUse">
<stop stop-color="#AC77FF"/>
<stop offset="0.5" stop-color="#8B5CF6"/>
<stop offset="1" stop-color="#62249E"/>
</linearGradient>
</defs>
</svg>
