<svg width="1541" height="1349" viewBox="0 0 1541 1349" fill="none" xmlns="http://www.w3.org/2000/svg">
<rect width="1541" height="1349" rx="255" fill="black"/>
<path d="M604 1059C602.895 1059 602 1059.9 602 1061C602 1062.1 602.895 1063 604 1063V1061V1059ZM868.333 1061C868.333 1066.89 873.109 1071.67 879 1071.67C884.891 1071.67 889.667 1066.89 889.667 1061C889.667 1055.11 884.891 1050.33 879 1050.33C873.109 1050.33 868.333 1055.11 868.333 1061ZM604 1061V1063H879V1061V1059H604V1061Z" fill="url(#paint0_linear_8_114)"/>
<path d="M221.95 975.75H212.25V1007H208.75V975.75H199V972.1H221.95V975.75ZM244.25 992.1V1007H240.75V972.1H251.3C254 972.1 256.05 972.983 257.45 974.75C258.883 976.517 259.6 978.983 259.6 982.15C259.6 984.95 258.983 987.217 257.75 988.95C256.517 990.65 254.75 991.633 252.45 991.9L259.85 1007H255.95L248.85 992.1H244.25ZM244.25 988.55H251.25C252.683 988.55 253.817 988.117 254.65 987.25C255.483 986.35 255.9 985.083 255.9 983.45V980.85C255.9 979.217 255.483 977.967 254.65 977.1C253.817 976.2 252.683 975.75 251.25 975.75H244.25V988.55ZM299.75 1007H296L293.55 997.05H283.35L280.9 1007H277.25L286.2 972.1H290.8L299.75 1007ZM292.75 993.4L288.65 976.55H288.25L284.2 993.4H292.75ZM318.95 1007V972.1H327.05C330.583 972.1 333.233 973.583 335 976.55C336.767 979.483 337.65 983.817 337.65 989.55C337.65 995.283 336.767 999.633 335 1002.6C333.233 1005.53 330.583 1007 327.05 1007H318.95ZM322.45 1003.35H326.9C329.2 1003.35 330.95 1002.38 332.15 1000.45C333.35 998.483 333.95 995.75 333.95 992.25V986.85C333.95 983.35 333.35 980.633 332.15 978.7C330.95 976.733 329.2 975.75 326.9 975.75H322.45V1003.35ZM375.65 1007H357.75V972.1H375.65V975.75H361.25V987.5H375.15V991.15H361.25V1003.35H375.65V1007ZM428.25 1007H423.25L420.95 972.1H424.05L425.25 992.1L425.9 1002.65H426.25L430.05 981.2H434L437.8 1002.65H438.15L438.75 992.1L440 972.1H443L440.75 1007H435.7L432.15 986.15H431.8L428.25 1007ZM480 1007H462V1003.65H469.25V975.45H462V972.1H480V975.45H472.75V1003.65H480V1007ZM521.45 975.75H511.75V1007H508.25V975.75H498.5V972.1H521.45V975.75ZM554.65 1007V991.15H543.3V1007H539.8V972.1H543.3V987.5H554.65V972.1H558.15V1007H554.65ZM609.25 992.1V1007H605.75V972.1H616.3C619 972.1 621.05 972.983 622.45 974.75C623.883 976.517 624.6 978.983 624.6 982.15C624.6 984.95 623.983 987.217 622.75 988.95C621.517 990.65 619.75 991.633 617.45 991.9L624.85 1007H620.95L613.85 992.1H609.25ZM609.25 988.55H616.25C617.683 988.55 618.817 988.117 619.65 987.25C620.483 986.35 620.9 985.083 620.9 983.45V980.85C620.9 979.217 620.483 977.967 619.65 977.1C618.817 976.2 617.683 975.75 616.25 975.75H609.25V988.55ZM644.3 972.1H647.8V993.05C647.8 995.283 647.883 997.217 648.05 998.85C648.25 1000.48 648.75 1001.75 649.55 1002.65C650.35 1003.52 651.667 1003.95 653.5 1003.95C655.3 1003.95 656.6 1003.52 657.4 1002.65C658.2 1001.75 658.683 1000.48 658.85 998.85C659.05 997.217 659.15 995.283 659.15 993.05V972.1H662.65V992.05C662.65 994.65 662.533 996.917 662.3 998.85C662.1 1000.78 661.683 1002.4 661.05 1003.7C660.417 1005 659.483 1005.98 658.25 1006.65C657.05 1007.28 655.467 1007.6 653.5 1007.6C651.5 1007.6 649.883 1007.28 648.65 1006.65C647.45 1005.98 646.533 1005 645.9 1003.7C645.267 1002.4 644.833 1000.78 644.6 998.85C644.4 996.917 644.3 994.65 644.3 992.05V972.1ZM702.25 1007H685V972.1H688.5V1003.35H702.25V1007ZM740.65 1007H722.75V972.1H740.65V975.75H726.25V987.5H740.15V991.15H726.25V1003.35H740.65V1007ZM770.4 1007.6C767.8 1007.6 765.667 1007.03 764 1005.9C762.333 1004.73 760.95 1003.25 759.85 1001.45L762.4 998.95C763.533 1000.65 764.733 1001.92 766 1002.75C767.267 1003.58 768.767 1004 770.5 1004C772.6 1004 774.2 1003.42 775.3 1002.25C776.433 1001.08 777 999.45 777 997.35C777 995.65 776.583 994.333 775.75 993.4C774.95 992.433 773.567 991.75 771.6 991.35L768.35 990.7C766.45 990.3 764.95 989.633 763.85 988.7C762.75 987.767 761.967 986.65 761.5 985.35C761.067 984.05 760.85 982.667 760.85 981.2C760.85 978 761.717 975.583 763.45 973.95C765.217 972.317 767.583 971.5 770.55 971.5C772.883 971.5 774.85 971.983 776.45 972.95C778.05 973.883 779.333 975.183 780.3 976.85L777.85 979.4C777.05 978.133 776.083 977.1 774.95 976.3C773.817 975.5 772.333 975.1 770.5 975.1C768.567 975.1 767.067 975.617 766 976.65C764.933 977.65 764.4 979.133 764.4 981.1C764.4 982.633 764.783 983.9 765.55 984.9C766.35 985.9 767.783 986.617 769.85 987.05L773 987.7C774.9 988.1 776.4 988.767 777.5 989.7C778.6 990.633 779.383 991.75 779.85 993.05C780.317 994.317 780.55 995.717 780.55 997.25C780.55 1000.48 779.667 1003.02 777.9 1004.85C776.133 1006.68 773.633 1007.6 770.4 1007.6ZM805.5 1014.05L807.7 1000.2H813.05L808.25 1014.05H805.5ZM879.2 1007L869.25 977.6H869V1007H865.8V972.1H870.75L880.7 1001.5H881V972.1H884.15V1007H879.2ZM914 1007.6C910.433 1007.6 907.833 1006.02 906.2 1002.85C904.6 999.683 903.8 995.25 903.8 989.55C903.8 983.85 904.6 979.417 906.2 976.25C907.833 973.083 910.433 971.5 914 971.5C917.533 971.5 920.1 973.083 921.7 976.25C923.333 979.417 924.15 983.85 924.15 989.55C924.15 995.25 923.333 999.683 921.7 1002.85C920.1 1006.02 917.533 1007.6 914 1007.6ZM914 1003.95C916.3 1003.95 917.95 1002.9 918.95 1000.8C919.95 998.7 920.45 995.9 920.45 992.4V986.7C920.45 983.2 919.95 980.4 918.95 978.3C917.95 976.2 916.3 975.15 914 975.15C911.667 975.15 910 976.2 909 978.3C908 980.4 907.5 983.2 907.5 986.7V992.4C907.5 995.9 908 998.7 909 1000.8C910 1002.9 911.667 1003.95 914 1003.95ZM964.45 975.75H954.75V1007H951.25V975.75H941.5V972.1H964.45V975.75ZM1027.65 1007H1009.75V972.1H1027.65V975.75H1013.25V987.5H1027.15V991.15H1013.25V1003.35H1027.65V1007ZM1063.95 1007V989.5V978.45H1063.6L1057.5 996.4L1051.35 978.45H1051V989.5V1007H1047.8V972.1H1052.3L1057.45 987.5H1057.7L1062.8 972.1H1067.15V1007H1063.95ZM1096.5 1007.6C1092.93 1007.6 1090.33 1006.02 1088.7 1002.85C1087.1 999.683 1086.3 995.25 1086.3 989.55C1086.3 983.85 1087.1 979.417 1088.7 976.25C1090.33 973.083 1092.93 971.5 1096.5 971.5C1100.03 971.5 1102.6 973.083 1104.2 976.25C1105.83 979.417 1106.65 983.85 1106.65 989.55C1106.65 995.25 1105.83 999.683 1104.2 1002.85C1102.6 1006.02 1100.03 1007.6 1096.5 1007.6ZM1096.5 1003.95C1098.8 1003.95 1100.45 1002.9 1101.45 1000.8C1102.45 998.7 1102.95 995.9 1102.95 992.4V986.7C1102.95 983.2 1102.45 980.4 1101.45 978.3C1100.45 976.2 1098.8 975.15 1096.5 975.15C1094.17 975.15 1092.5 976.2 1091.5 978.3C1090.5 980.4 1090 983.2 1090 986.7V992.4C1090 995.9 1090.5 998.7 1091.5 1000.8C1092.5 1002.9 1094.17 1003.95 1096.5 1003.95ZM1146.95 975.75H1137.25V1007H1133.75V975.75H1124V972.1H1146.95V975.75ZM1183.5 1007H1165.5V1003.65H1172.75V975.45H1165.5V972.1H1183.5V975.45H1176.25V1003.65H1183.5V1007ZM1213.5 1007.6C1209.93 1007.6 1207.33 1006.02 1205.7 1002.85C1204.1 999.683 1203.3 995.25 1203.3 989.55C1203.3 983.85 1204.1 979.417 1205.7 976.25C1207.33 973.083 1209.93 971.5 1213.5 971.5C1217.03 971.5 1219.6 973.083 1221.2 976.25C1222.83 979.417 1223.65 983.85 1223.65 989.55C1223.65 995.25 1222.83 999.683 1221.2 1002.85C1219.6 1006.02 1217.03 1007.6 1213.5 1007.6ZM1213.5 1003.95C1215.8 1003.95 1217.45 1002.9 1218.45 1000.8C1219.45 998.7 1219.95 995.9 1219.95 992.4V986.7C1219.95 983.2 1219.45 980.4 1218.45 978.3C1217.45 976.2 1215.8 975.15 1213.5 975.15C1211.17 975.15 1209.5 976.2 1208.5 978.3C1207.5 980.4 1207 983.2 1207 986.7V992.4C1207 995.9 1207.5 998.7 1208.5 1000.8C1209.5 1002.9 1211.17 1003.95 1213.5 1003.95ZM1256.7 1007L1246.75 977.6H1246.5V1007H1243.3V972.1H1248.25L1258.2 1001.5H1258.5V972.1H1261.65V1007H1256.7ZM1291.4 1007.6C1288.8 1007.6 1286.67 1007.03 1285 1005.9C1283.33 1004.73 1281.95 1003.25 1280.85 1001.45L1283.4 998.95C1284.53 1000.65 1285.73 1001.92 1287 1002.75C1288.27 1003.58 1289.77 1004 1291.5 1004C1293.6 1004 1295.2 1003.42 1296.3 1002.25C1297.43 1001.08 1298 999.45 1298 997.35C1298 995.65 1297.58 994.333 1296.75 993.4C1295.95 992.433 1294.57 991.75 1292.6 991.35L1289.35 990.7C1287.45 990.3 1285.95 989.633 1284.85 988.7C1283.75 987.767 1282.97 986.65 1282.5 985.35C1282.07 984.05 1281.85 982.667 1281.85 981.2C1281.85 978 1282.72 975.583 1284.45 973.95C1286.22 972.317 1288.58 971.5 1291.55 971.5C1293.88 971.5 1295.85 971.983 1297.45 972.95C1299.05 973.883 1300.33 975.183 1301.3 976.85L1298.85 979.4C1298.05 978.133 1297.08 977.1 1295.95 976.3C1294.82 975.5 1293.33 975.1 1291.5 975.1C1289.57 975.1 1288.07 975.617 1287 976.65C1285.93 977.65 1285.4 979.133 1285.4 981.1C1285.4 982.633 1285.78 983.9 1286.55 984.9C1287.35 985.9 1288.78 986.617 1290.85 987.05L1294 987.7C1295.9 988.1 1297.4 988.767 1298.5 989.7C1299.6 990.633 1300.38 991.75 1300.85 993.05C1301.32 994.317 1301.55 995.717 1301.55 997.25C1301.55 1000.48 1300.67 1003.02 1298.9 1004.85C1297.13 1006.68 1294.63 1007.6 1291.4 1007.6ZM1330.5 1007.45C1329.37 1007.45 1328.57 1007.17 1328.1 1006.6C1327.63 1006 1327.4 1005.28 1327.4 1004.45V1003.55C1327.4 1002.68 1327.63 1001.97 1328.1 1001.4C1328.57 1000.83 1329.37 1000.55 1330.5 1000.55C1331.6 1000.55 1332.38 1000.83 1332.85 1001.4C1333.32 1001.97 1333.55 1002.68 1333.55 1003.55V1004.45C1333.55 1005.28 1333.32 1006 1332.85 1006.6C1332.38 1007.17 1331.6 1007.45 1330.5 1007.45Z" fill="white"/>
<path d="M234.32 887V726.4H255.88V887H234.32ZM251.48 887V867.64H329.36V887H251.48ZM251.48 815.06V795.7H322.54V815.06H251.48ZM251.48 745.76V726.4H327.16V745.76H251.48ZM409.636 890.96C401.276 890.96 393.576 889.42 386.536 886.34C379.496 883.26 373.336 878.933 368.056 873.36C362.923 867.787 358.889 861.333 355.956 854C353.169 846.667 351.776 838.747 351.776 830.24V826.28C351.776 817.92 353.169 810.073 355.956 802.74C358.743 795.407 362.629 788.953 367.616 783.38C372.749 777.807 378.763 773.48 385.656 770.4C392.696 767.173 400.469 765.56 408.976 765.56C417.923 765.56 426.063 767.467 433.396 771.28C440.729 774.947 446.743 780.74 451.436 788.66C456.129 796.58 458.769 806.847 459.356 819.46L450.556 805.38V726.4H471.676V887H454.956V834.86H461.116C460.529 848.207 457.743 859.06 452.756 867.42C447.769 875.633 441.463 881.647 433.836 885.46C426.356 889.127 418.289 890.96 409.636 890.96ZM412.496 872.48C419.683 872.48 426.209 870.867 432.076 867.64C437.943 864.413 442.636 859.793 446.156 853.78C449.676 847.62 451.436 840.433 451.436 832.22V822.1C451.436 814.033 449.603 807.213 445.936 801.64C442.416 795.92 437.649 791.593 431.636 788.66C425.769 785.58 419.316 784.04 412.276 784.04C404.503 784.04 397.609 785.873 391.596 789.54C385.729 793.207 381.109 798.34 377.736 804.94C374.509 811.54 372.896 819.313 372.896 828.26C372.896 837.207 374.583 845.053 377.956 851.8C381.329 858.4 386.023 863.533 392.036 867.2C398.049 870.72 404.869 872.48 412.496 872.48ZM556.696 932.76C551.269 932.76 545.769 932.54 540.196 932.1C534.769 931.66 529.562 931.073 524.576 930.34V912.52C529.856 913.253 535.356 913.84 541.076 914.28C546.942 914.867 552.442 915.16 557.576 915.16C568.282 915.16 576.789 913.693 583.096 910.76C589.549 907.973 594.169 903.5 596.956 897.34C599.889 891.327 601.356 883.553 601.356 874.02V851.58L608.396 834.86C607.956 846.74 605.462 856.64 600.916 864.56C596.369 872.333 590.429 878.2 583.096 882.16C575.909 885.973 567.916 887.88 559.116 887.88C550.902 887.88 543.349 886.34 536.456 883.26C529.709 880.033 523.842 875.633 518.856 870.06C514.016 864.487 510.202 858.107 507.416 850.92C504.776 843.587 503.456 835.887 503.456 827.82V823.86C503.456 815.647 504.849 808.02 507.636 800.98C510.422 793.793 514.309 787.56 519.296 782.28C524.282 777 530.222 772.893 537.116 769.96C544.156 767.027 551.856 765.56 560.216 765.56C570.042 765.56 578.696 767.687 586.176 771.94C593.656 776.047 599.522 782.133 603.776 790.2C608.176 798.12 610.596 807.873 611.036 819.46L604.876 819.68V769.52H621.596V873.14C621.596 887.22 619.396 898.587 614.996 907.24C610.742 916.04 603.849 922.493 594.316 926.6C584.929 930.707 572.389 932.76 556.696 932.76ZM563.076 868.52C570.116 868.52 576.496 866.98 582.216 863.9C588.082 860.82 592.702 856.42 596.076 850.7C599.596 844.833 601.356 837.867 601.356 829.8V819.68C601.356 811.76 599.522 805.087 595.856 799.66C592.336 794.233 587.716 790.127 581.996 787.34C576.276 784.553 570.042 783.16 563.296 783.16C555.669 783.16 548.922 784.92 543.056 788.44C537.189 791.96 532.642 796.947 529.416 803.4C526.189 809.707 524.576 817.187 524.576 825.84C524.576 834.493 526.189 842.047 529.416 848.5C532.789 854.953 537.336 859.94 543.056 863.46C548.922 866.833 555.596 868.52 563.076 868.52ZM710.653 890.96C700.386 890.96 691.513 889.2 684.033 885.68C676.553 882.16 670.466 877.54 665.773 871.82C661.079 865.953 657.559 859.427 655.213 852.24C653.013 845.053 651.913 837.72 651.913 830.24V826.28C651.913 818.653 653.013 811.247 655.213 804.06C657.559 796.873 661.079 790.42 665.773 784.7C670.466 778.833 676.406 774.213 683.593 770.84C690.926 767.32 699.506 765.56 709.333 765.56C722.093 765.56 732.579 768.347 740.793 773.92C749.153 779.347 755.313 786.387 759.273 795.04C763.379 803.693 765.433 812.933 765.433 822.76V832.22H661.153V816.38H750.033L745.193 824.96C745.193 816.6 743.873 809.413 741.233 803.4C738.593 797.24 734.633 792.473 729.353 789.1C724.073 785.727 717.399 784.04 709.333 784.04C700.973 784.04 694.006 785.947 688.433 789.76C683.006 793.573 678.899 798.78 676.113 805.38C673.473 811.98 672.153 819.607 672.153 828.26C672.153 836.62 673.473 844.173 676.113 850.92C678.899 857.52 683.153 862.8 688.873 866.76C694.593 870.573 701.853 872.48 710.653 872.48C719.893 872.48 727.373 870.427 733.093 866.32C738.959 862.213 742.479 857.447 743.653 852.02H763.453C761.839 860.087 758.613 867.053 753.773 872.92C748.933 878.787 742.846 883.26 735.513 886.34C728.179 889.42 719.893 890.96 710.653 890.96Z" fill="white"/>
<path d="M798.5 887V726.4H820.06V887H798.5ZM815.66 815.5V796.14L884.52 795.92V815.28L815.66 815.5ZM815.66 745.76V726.4H888.26V745.76H815.66ZM921.134 887V726.4H942.254V887H921.134ZM904.854 743.12V726.4H942.254V743.12H904.854ZM1036.88 890.96C1026.62 890.96 1017.6 889.2 1009.82 885.68C1002.05 882.16 995.45 877.54 990.023 871.82C984.743 865.953 980.71 859.427 977.923 852.24C975.283 845.053 973.963 837.72 973.963 830.24V826.28C973.963 818.8 975.357 811.467 978.143 804.28C980.93 796.947 985.037 790.42 990.463 784.7C995.89 778.833 1002.49 774.213 1010.26 770.84C1018.04 767.32 1026.91 765.56 1036.88 765.56C1046.86 765.56 1055.73 767.32 1063.5 770.84C1071.28 774.213 1077.88 778.833 1083.3 784.7C1088.73 790.42 1092.84 796.947 1095.62 804.28C1098.41 811.467 1099.8 818.8 1099.8 826.28V830.24C1099.8 837.72 1098.41 845.053 1095.62 852.24C1092.98 859.427 1088.95 865.953 1083.52 871.82C1078.24 877.54 1071.72 882.16 1063.94 885.68C1056.17 889.2 1047.15 890.96 1036.88 890.96ZM1036.88 872.04C1045.68 872.04 1053.16 870.133 1059.32 866.32C1065.63 862.36 1070.4 857.08 1073.62 850.48C1077 843.88 1078.68 836.473 1078.68 828.26C1078.68 819.9 1077 812.42 1073.62 805.82C1070.25 799.22 1065.41 794.013 1059.1 790.2C1052.94 786.387 1045.54 784.48 1036.88 784.48C1028.38 784.48 1020.97 786.387 1014.66 790.2C1008.36 794.013 1003.52 799.22 1000.14 805.82C996.77 812.42 995.083 819.9 995.083 828.26C995.083 836.473 996.697 843.88 999.923 850.48C1003.3 857.08 1008.06 862.36 1014.22 866.32C1020.53 870.133 1028.08 872.04 1036.88 872.04ZM1163.61 887L1187.37 773.48H1215.97L1243.69 887H1225.65L1197.93 773.92H1204.97L1180.99 887H1163.61ZM1152.83 887V870.28H1177.25V887H1152.83ZM1147.99 887L1114.77 769.52H1135.01L1167.35 887H1147.99ZM1230.05 887V870.28H1254.47V887H1230.05ZM1239.95 887L1268.11 769.52H1287.25L1258.43 887H1239.95Z" fill="url(#paint1_linear_8_114)"/>
<path d="M510.826 422.825H440.448C456.944 347.625 509.78 326.492 534.136 325.325H842.099C820.582 380.125 785.916 399.492 771.272 402.325H534.136C524.095 402.325 514.412 415.992 510.826 422.825Z" fill="url(#paint2_linear_8_114)"/>
<path d="M1053.51 390.325V373.325H1043.2V330.825H1053.51V309.825H1062.48V330.825H1072.79V373.325H1062.48V390.325H1053.51Z" fill="url(#paint3_linear_8_114)"/>
<path d="M414 510.325C425.834 474.725 454.493 466.825 467.344 467.325H677.135C665.48 491.992 634.639 541.325 604.515 541.325C574.391 541.325 522.033 542.325 499.62 542.825C493.941 542.659 480.702 546.725 473.171 564.325C465.641 581.925 460.172 600.325 458.379 607.325H629.618C660.391 605.755 679.327 579.989 713.445 547.825C754.096 504.119 774.025 501.469 798.617 501.825C821.057 501.469 843.11 504.119 880.203 547.825C920.277 589.901 935.34 608.325 959.098 607.325C969.409 607.325 997.202 607.325 1020.51 547.825L1122.27 326.825L1094.92 311.825C1119.28 293.825 1168.89 257.225 1172.48 254.825C1176.06 252.425 1178.45 255.825 1179.2 257.825V362.825L1154.1 344.325C1119.88 422.159 1055.48 570.125 1037.55 607.325C1019.62 644.525 984.799 667.659 968.96 667.325C945.202 668.325 920.277 667.401 880.203 625.325C843.11 581.619 821.057 563.969 798.617 564.325C774.025 563.969 754.096 580.619 713.445 624.325C679.327 656.489 660.391 672.755 629.618 674.325H362C374.402 634.492 402.165 545.925 414 510.325Z" fill="url(#paint4_linear_8_114)"/>
<path d="M948.168 560.325H940.099V539.825H927.099V476.325H940.099V443.825H948.168V476.325H959.823V539.825H948.168V560.325Z" fill="url(#paint5_linear_8_114)"/>
<path d="M1007.96 491.325H998.098V463.825H981.96V375.325H998.098V344.825H1007.96V375.325H1022.3V463.825H1007.96V491.325Z" fill="url(#paint6_linear_8_114)"/>
<defs>
<linearGradient id="paint0_linear_8_114" x1="604" y1="1061.5" x2="879" y2="1061.5" gradientUnits="userSpaceOnUse">
<stop stop-color="#B770FF"/>
<stop offset="1" stop-color="#8000FF"/>
</linearGradient>
<linearGradient id="paint1_linear_8_114" x1="211" y1="815.5" x2="1330" y2="815.5" gradientUnits="userSpaceOnUse">
<stop stop-color="#D8BFFF"/>
<stop offset="0.745192" stop-color="#963BFF"/>
<stop offset="1" stop-color="#8000FF"/>
</linearGradient>
<linearGradient id="paint2_linear_8_114" x1="540.516" y1="332.934" x2="595.818" y2="435.85" gradientUnits="userSpaceOnUse">
<stop stop-color="#6D28D9"/>
<stop offset="0.5" stop-color="#8B5CF6"/>
<stop offset="1" stop-color="#A855F7"/>
</linearGradient>
<linearGradient id="paint3_linear_8_114" x1="1050.57" y1="316.107" x2="1068.27" y2="319.045" gradientUnits="userSpaceOnUse">
<stop stop-color="#6D28D9"/>
<stop offset="0.5" stop-color="#8B5CF6"/>
<stop offset="1" stop-color="#A855F7"/>
</linearGradient>
<linearGradient id="paint4_linear_8_114" x1="565.6" y1="286.8" x2="849.1" y2="535.8" gradientUnits="userSpaceOnUse">
<stop stop-color="#6D28D9"/>
<stop offset="0.5" stop-color="#8B5CF6"/>
<stop offset="1" stop-color="#A855F7"/>
</linearGradient>
<linearGradient id="paint5_linear_8_114" x1="565.6" y1="286.8" x2="849.1" y2="535.8" gradientUnits="userSpaceOnUse">
<stop stop-color="#6D28D9"/>
<stop offset="0.5" stop-color="#8B5CF6"/>
<stop offset="1" stop-color="#A855F7"/>
</linearGradient>
<linearGradient id="paint6_linear_8_114" x1="565.6" y1="286.8" x2="849.1" y2="535.8" gradientUnits="userSpaceOnUse">
<stop stop-color="#6D28D9"/>
<stop offset="0.5" stop-color="#8B5CF6"/>
<stop offset="1" stop-color="#A855F7"/>
</linearGradient>
</defs>
</svg>
