<svg width="2518" height="831" viewBox="0 0 2518 831" fill="none" xmlns="http://www.w3.org/2000/svg">
<rect width="2518" height="831" rx="255" fill="white"/>
<path d="M1565 624C1563.9 624 1563 624.895 1563 626C1563 627.105 1563.9 628 1565 628V626V624ZM1829.33 626C1829.33 631.891 1834.11 636.667 1840 636.667C1845.89 636.667 1850.67 631.891 1850.67 626C1850.67 620.109 1845.89 615.333 1840 615.333C1834.11 615.333 1829.33 620.109 1829.33 626ZM1565 626V628H1840V626V624H1565V626Z" fill="url(#paint0_linear_8_209)"/>
<path d="M1106.95 535.75H1097.25V567H1093.75V535.75H1084V532.1H1106.95V535.75ZM1129.25 552.1V567H1125.75V532.1H1136.3C1139 532.1 1141.05 532.983 1142.45 534.75C1143.88 536.517 1144.6 538.983 1144.6 542.15C1144.6 544.95 1143.98 547.217 1142.75 548.95C1141.52 550.65 1139.75 551.633 1137.45 551.9L1144.85 567H1140.95L1133.85 552.1H1129.25ZM1129.25 548.55H1136.25C1137.68 548.55 1138.82 548.117 1139.65 547.25C1140.48 546.35 1140.9 545.083 1140.9 543.45V540.85C1140.9 539.217 1140.48 537.967 1139.65 537.1C1138.82 536.2 1137.68 535.75 1136.25 535.75H1129.25V548.55ZM1184.75 567H1181L1178.55 557.05H1168.35L1165.9 567H1162.25L1171.2 532.1H1175.8L1184.75 567ZM1177.75 553.4L1173.65 536.55H1173.25L1169.2 553.4H1177.75ZM1203.95 567V532.1H1212.05C1215.58 532.1 1218.23 533.583 1220 536.55C1221.77 539.483 1222.65 543.817 1222.65 549.55C1222.65 555.283 1221.77 559.633 1220 562.6C1218.23 565.533 1215.58 567 1212.05 567H1203.95ZM1207.45 563.35H1211.9C1214.2 563.35 1215.95 562.383 1217.15 560.45C1218.35 558.483 1218.95 555.75 1218.95 552.25V546.85C1218.95 543.35 1218.35 540.633 1217.15 538.7C1215.95 536.733 1214.2 535.75 1211.9 535.75H1207.45V563.35ZM1260.65 567H1242.75V532.1H1260.65V535.75H1246.25V547.5H1260.15V551.15H1246.25V563.35H1260.65V567ZM1313.25 567H1308.25L1305.95 532.1H1309.05L1310.25 552.1L1310.9 562.65H1311.25L1315.05 541.2H1319L1322.8 562.65H1323.15L1323.75 552.1L1325 532.1H1328L1325.75 567H1320.7L1317.15 546.15H1316.8L1313.25 567ZM1365 567H1347V563.65H1354.25V535.45H1347V532.1H1365V535.45H1357.75V563.65H1365V567ZM1406.45 535.75H1396.75V567H1393.25V535.75H1383.5V532.1H1406.45V535.75ZM1439.65 567V551.15H1428.3V567H1424.8V532.1H1428.3V547.5H1439.65V532.1H1443.15V567H1439.65ZM1494.25 552.1V567H1490.75V532.1H1501.3C1504 532.1 1506.05 532.983 1507.45 534.75C1508.88 536.517 1509.6 538.983 1509.6 542.15C1509.6 544.95 1508.98 547.217 1507.75 548.95C1506.52 550.65 1504.75 551.633 1502.45 551.9L1509.85 567H1505.95L1498.85 552.1H1494.25ZM1494.25 548.55H1501.25C1502.68 548.55 1503.82 548.117 1504.65 547.25C1505.48 546.35 1505.9 545.083 1505.9 543.45V540.85C1505.9 539.217 1505.48 537.967 1504.65 537.1C1503.82 536.2 1502.68 535.75 1501.25 535.75H1494.25V548.55ZM1529.3 532.1H1532.8V553.05C1532.8 555.283 1532.88 557.217 1533.05 558.85C1533.25 560.483 1533.75 561.75 1534.55 562.65C1535.35 563.517 1536.67 563.95 1538.5 563.95C1540.3 563.95 1541.6 563.517 1542.4 562.65C1543.2 561.75 1543.68 560.483 1543.85 558.85C1544.05 557.217 1544.15 555.283 1544.15 553.05V532.1H1547.65V552.05C1547.65 554.65 1547.53 556.917 1547.3 558.85C1547.1 560.783 1546.68 562.4 1546.05 563.7C1545.42 565 1544.48 565.983 1543.25 566.65C1542.05 567.283 1540.47 567.6 1538.5 567.6C1536.5 567.6 1534.88 567.283 1533.65 566.65C1532.45 565.983 1531.53 565 1530.9 563.7C1530.27 562.4 1529.83 560.783 1529.6 558.85C1529.4 556.917 1529.3 554.65 1529.3 552.05V532.1ZM1587.25 567H1570V532.1H1573.5V563.35H1587.25V567ZM1625.65 567H1607.75V532.1H1625.65V535.75H1611.25V547.5H1625.15V551.15H1611.25V563.35H1625.65V567ZM1655.4 567.6C1652.8 567.6 1650.67 567.033 1649 565.9C1647.33 564.733 1645.95 563.25 1644.85 561.45L1647.4 558.95C1648.53 560.65 1649.73 561.917 1651 562.75C1652.27 563.583 1653.77 564 1655.5 564C1657.6 564 1659.2 563.417 1660.3 562.25C1661.43 561.083 1662 559.45 1662 557.35C1662 555.65 1661.58 554.333 1660.75 553.4C1659.95 552.433 1658.57 551.75 1656.6 551.35L1653.35 550.7C1651.45 550.3 1649.95 549.633 1648.85 548.7C1647.75 547.767 1646.97 546.65 1646.5 545.35C1646.07 544.05 1645.85 542.667 1645.85 541.2C1645.85 538 1646.72 535.583 1648.45 533.95C1650.22 532.317 1652.58 531.5 1655.55 531.5C1657.88 531.5 1659.85 531.983 1661.45 532.95C1663.05 533.883 1664.33 535.183 1665.3 536.85L1662.85 539.4C1662.05 538.133 1661.08 537.1 1659.95 536.3C1658.82 535.5 1657.33 535.1 1655.5 535.1C1653.57 535.1 1652.07 535.617 1651 536.65C1649.93 537.65 1649.4 539.133 1649.4 541.1C1649.4 542.633 1649.78 543.9 1650.55 544.9C1651.35 545.9 1652.78 546.617 1654.85 547.05L1658 547.7C1659.9 548.1 1661.4 548.767 1662.5 549.7C1663.6 550.633 1664.38 551.75 1664.85 553.05C1665.32 554.317 1665.55 555.717 1665.55 557.25C1665.55 560.483 1664.67 563.017 1662.9 564.85C1661.13 566.683 1658.63 567.6 1655.4 567.6ZM1690.5 574.05L1692.7 560.2H1698.05L1693.25 574.05H1690.5ZM1764.2 567L1754.25 537.6H1754V567H1750.8V532.1H1755.75L1765.7 561.5H1766V532.1H1769.15V567H1764.2ZM1799 567.6C1795.43 567.6 1792.83 566.017 1791.2 562.85C1789.6 559.683 1788.8 555.25 1788.8 549.55C1788.8 543.85 1789.6 539.417 1791.2 536.25C1792.83 533.083 1795.43 531.5 1799 531.5C1802.53 531.5 1805.1 533.083 1806.7 536.25C1808.33 539.417 1809.15 543.85 1809.15 549.55C1809.15 555.25 1808.33 559.683 1806.7 562.85C1805.1 566.017 1802.53 567.6 1799 567.6ZM1799 563.95C1801.3 563.95 1802.95 562.9 1803.95 560.8C1804.95 558.7 1805.45 555.9 1805.45 552.4V546.7C1805.45 543.2 1804.95 540.4 1803.95 538.3C1802.95 536.2 1801.3 535.15 1799 535.15C1796.67 535.15 1795 536.2 1794 538.3C1793 540.4 1792.5 543.2 1792.5 546.7V552.4C1792.5 555.9 1793 558.7 1794 560.8C1795 562.9 1796.67 563.95 1799 563.95ZM1849.45 535.75H1839.75V567H1836.25V535.75H1826.5V532.1H1849.45V535.75ZM1912.65 567H1894.75V532.1H1912.65V535.75H1898.25V547.5H1912.15V551.15H1898.25V563.35H1912.65V567ZM1948.95 567V549.5V538.45H1948.6L1942.5 556.4L1936.35 538.45H1936V549.5V567H1932.8V532.1H1937.3L1942.45 547.5H1942.7L1947.8 532.1H1952.15V567H1948.95ZM1981.5 567.6C1977.93 567.6 1975.33 566.017 1973.7 562.85C1972.1 559.683 1971.3 555.25 1971.3 549.55C1971.3 543.85 1972.1 539.417 1973.7 536.25C1975.33 533.083 1977.93 531.5 1981.5 531.5C1985.03 531.5 1987.6 533.083 1989.2 536.25C1990.83 539.417 1991.65 543.85 1991.65 549.55C1991.65 555.25 1990.83 559.683 1989.2 562.85C1987.6 566.017 1985.03 567.6 1981.5 567.6ZM1981.5 563.95C1983.8 563.95 1985.45 562.9 1986.45 560.8C1987.45 558.7 1987.95 555.9 1987.95 552.4V546.7C1987.95 543.2 1987.45 540.4 1986.45 538.3C1985.45 536.2 1983.8 535.15 1981.5 535.15C1979.17 535.15 1977.5 536.2 1976.5 538.3C1975.5 540.4 1975 543.2 1975 546.7V552.4C1975 555.9 1975.5 558.7 1976.5 560.8C1977.5 562.9 1979.17 563.95 1981.5 563.95ZM2031.95 535.75H2022.25V567H2018.75V535.75H2009V532.1H2031.95V535.75ZM2068.5 567H2050.5V563.65H2057.75V535.45H2050.5V532.1H2068.5V535.45H2061.25V563.65H2068.5V567ZM2098.5 567.6C2094.93 567.6 2092.33 566.017 2090.7 562.85C2089.1 559.683 2088.3 555.25 2088.3 549.55C2088.3 543.85 2089.1 539.417 2090.7 536.25C2092.33 533.083 2094.93 531.5 2098.5 531.5C2102.03 531.5 2104.6 533.083 2106.2 536.25C2107.83 539.417 2108.65 543.85 2108.65 549.55C2108.65 555.25 2107.83 559.683 2106.2 562.85C2104.6 566.017 2102.03 567.6 2098.5 567.6ZM2098.5 563.95C2100.8 563.95 2102.45 562.9 2103.45 560.8C2104.45 558.7 2104.95 555.9 2104.95 552.4V546.7C2104.95 543.2 2104.45 540.4 2103.45 538.3C2102.45 536.2 2100.8 535.15 2098.5 535.15C2096.17 535.15 2094.5 536.2 2093.5 538.3C2092.5 540.4 2092 543.2 2092 546.7V552.4C2092 555.9 2092.5 558.7 2093.5 560.8C2094.5 562.9 2096.17 563.95 2098.5 563.95ZM2141.7 567L2131.75 537.6H2131.5V567H2128.3V532.1H2133.25L2143.2 561.5H2143.5V532.1H2146.65V567H2141.7ZM2176.4 567.6C2173.8 567.6 2171.67 567.033 2170 565.9C2168.33 564.733 2166.95 563.25 2165.85 561.45L2168.4 558.95C2169.53 560.65 2170.73 561.917 2172 562.75C2173.27 563.583 2174.77 564 2176.5 564C2178.6 564 2180.2 563.417 2181.3 562.25C2182.43 561.083 2183 559.45 2183 557.35C2183 555.65 2182.58 554.333 2181.75 553.4C2180.95 552.433 2179.57 551.75 2177.6 551.35L2174.35 550.7C2172.45 550.3 2170.95 549.633 2169.85 548.7C2168.75 547.767 2167.97 546.65 2167.5 545.35C2167.07 544.05 2166.85 542.667 2166.85 541.2C2166.85 538 2167.72 535.583 2169.45 533.95C2171.22 532.317 2173.58 531.5 2176.55 531.5C2178.88 531.5 2180.85 531.983 2182.45 532.95C2184.05 533.883 2185.33 535.183 2186.3 536.85L2183.85 539.4C2183.05 538.133 2182.08 537.1 2180.95 536.3C2179.82 535.5 2178.33 535.1 2176.5 535.1C2174.57 535.1 2173.07 535.617 2172 536.65C2170.93 537.65 2170.4 539.133 2170.4 541.1C2170.4 542.633 2170.78 543.9 2171.55 544.9C2172.35 545.9 2173.78 546.617 2175.85 547.05L2179 547.7C2180.9 548.1 2182.4 548.767 2183.5 549.7C2184.6 550.633 2185.38 551.75 2185.85 553.05C2186.32 554.317 2186.55 555.717 2186.55 557.25C2186.55 560.483 2185.67 563.017 2183.9 564.85C2182.13 566.683 2179.63 567.6 2176.4 567.6ZM2215.5 567.45C2214.37 567.45 2213.57 567.167 2213.1 566.6C2212.63 566 2212.4 565.283 2212.4 564.45V563.55C2212.4 562.683 2212.63 561.967 2213.1 561.4C2213.57 560.833 2214.37 560.55 2215.5 560.55C2216.6 560.55 2217.38 560.833 2217.85 561.4C2218.32 561.967 2218.55 562.683 2218.55 563.55V564.45C2218.55 565.283 2218.32 566 2217.85 566.6C2217.38 567.167 2216.6 567.45 2215.5 567.45Z" fill="black"/>
<path d="M1166.32 447V286.4H1187.88V447H1166.32ZM1183.48 447V427.64H1261.36V447H1183.48ZM1183.48 375.06V355.7H1254.54V375.06H1183.48ZM1183.48 305.76V286.4H1259.16V305.76H1183.48ZM1341.64 450.96C1333.28 450.96 1325.58 449.42 1318.54 446.34C1311.5 443.26 1305.34 438.933 1300.06 433.36C1294.92 427.787 1290.89 421.333 1287.96 414C1285.17 406.667 1283.78 398.747 1283.78 390.24V386.28C1283.78 377.92 1285.17 370.073 1287.96 362.74C1290.74 355.407 1294.63 348.953 1299.62 343.38C1304.75 337.807 1310.76 333.48 1317.66 330.4C1324.7 327.173 1332.47 325.56 1340.98 325.56C1349.92 325.56 1358.06 327.467 1365.4 331.28C1372.73 334.947 1378.74 340.74 1383.44 348.66C1388.13 356.58 1390.77 366.847 1391.36 379.46L1382.56 365.38V286.4H1403.68V447H1386.96V394.86H1393.12C1392.53 408.207 1389.74 419.06 1384.76 427.42C1379.77 435.633 1373.46 441.647 1365.84 445.46C1358.36 449.127 1350.29 450.96 1341.64 450.96ZM1344.5 432.48C1351.68 432.48 1358.21 430.867 1364.08 427.64C1369.94 424.413 1374.64 419.793 1378.16 413.78C1381.68 407.62 1383.44 400.433 1383.44 392.22V382.1C1383.44 374.033 1381.6 367.213 1377.94 361.64C1374.42 355.92 1369.65 351.593 1363.64 348.66C1357.77 345.58 1351.32 344.04 1344.28 344.04C1336.5 344.04 1329.61 345.873 1323.6 349.54C1317.73 353.207 1313.11 358.34 1309.74 364.94C1306.51 371.54 1304.9 379.313 1304.9 388.26C1304.9 397.207 1306.58 405.053 1309.96 411.8C1313.33 418.4 1318.02 423.533 1324.04 427.2C1330.05 430.72 1336.87 432.48 1344.5 432.48ZM1488.7 492.76C1483.27 492.76 1477.77 492.54 1472.2 492.1C1466.77 491.66 1461.56 491.073 1456.58 490.34V472.52C1461.86 473.253 1467.36 473.84 1473.08 474.28C1478.94 474.867 1484.44 475.16 1489.58 475.16C1500.28 475.16 1508.79 473.693 1515.1 470.76C1521.55 467.973 1526.17 463.5 1528.96 457.34C1531.89 451.327 1533.36 443.553 1533.36 434.02V411.58L1540.4 394.86C1539.96 406.74 1537.46 416.64 1532.92 424.56C1528.37 432.333 1522.43 438.2 1515.1 442.16C1507.91 445.973 1499.92 447.88 1491.12 447.88C1482.9 447.88 1475.35 446.34 1468.46 443.26C1461.71 440.033 1455.84 435.633 1450.86 430.06C1446.02 424.487 1442.2 418.107 1439.42 410.92C1436.78 403.587 1435.46 395.887 1435.46 387.82V383.86C1435.46 375.647 1436.85 368.02 1439.64 360.98C1442.42 353.793 1446.31 347.56 1451.3 342.28C1456.28 337 1462.22 332.893 1469.12 329.96C1476.16 327.027 1483.86 325.56 1492.22 325.56C1502.04 325.56 1510.7 327.687 1518.18 331.94C1525.66 336.047 1531.52 342.133 1535.78 350.2C1540.18 358.12 1542.6 367.873 1543.04 379.46L1536.88 379.68V329.52H1553.6V433.14C1553.6 447.22 1551.4 458.587 1547 467.24C1542.74 476.04 1535.85 482.493 1526.32 486.6C1516.93 490.707 1504.39 492.76 1488.7 492.76ZM1495.08 428.52C1502.12 428.52 1508.5 426.98 1514.22 423.9C1520.08 420.82 1524.7 416.42 1528.08 410.7C1531.6 404.833 1533.36 397.867 1533.36 389.8V379.68C1533.36 371.76 1531.52 365.087 1527.86 359.66C1524.34 354.233 1519.72 350.127 1514 347.34C1508.28 344.553 1502.04 343.16 1495.3 343.16C1487.67 343.16 1480.92 344.92 1475.06 348.44C1469.19 351.96 1464.64 356.947 1461.42 363.4C1458.19 369.707 1456.58 377.187 1456.58 385.84C1456.58 394.493 1458.19 402.047 1461.42 408.5C1464.79 414.953 1469.34 419.94 1475.06 423.46C1480.92 426.833 1487.6 428.52 1495.08 428.52ZM1642.65 450.96C1632.39 450.96 1623.51 449.2 1616.03 445.68C1608.55 442.16 1602.47 437.54 1597.77 431.82C1593.08 425.953 1589.56 419.427 1587.21 412.24C1585.01 405.053 1583.91 397.72 1583.91 390.24V386.28C1583.91 378.653 1585.01 371.247 1587.21 364.06C1589.56 356.873 1593.08 350.42 1597.77 344.7C1602.47 338.833 1608.41 334.213 1615.59 330.84C1622.93 327.32 1631.51 325.56 1641.33 325.56C1654.09 325.56 1664.58 328.347 1672.79 333.92C1681.15 339.347 1687.31 346.387 1691.27 355.04C1695.38 363.693 1697.43 372.933 1697.43 382.76V392.22H1593.15V376.38H1682.03L1677.19 384.96C1677.19 376.6 1675.87 369.413 1673.23 363.4C1670.59 357.24 1666.63 352.473 1661.35 349.1C1656.07 345.727 1649.4 344.04 1641.33 344.04C1632.97 344.04 1626.01 345.947 1620.43 349.76C1615.01 353.573 1610.9 358.78 1608.11 365.38C1605.47 371.98 1604.15 379.607 1604.15 388.26C1604.15 396.62 1605.47 404.173 1608.11 410.92C1610.9 417.52 1615.15 422.8 1620.87 426.76C1626.59 430.573 1633.85 432.48 1642.65 432.48C1651.89 432.48 1659.37 430.427 1665.09 426.32C1670.96 422.213 1674.48 417.447 1675.65 412.02H1695.45C1693.84 420.087 1690.61 427.053 1685.77 432.92C1680.93 438.787 1674.85 443.26 1667.51 446.34C1660.18 449.42 1651.89 450.96 1642.65 450.96Z" fill="black"/>
<path d="M1730.5 447V286.4H1752.06V447H1730.5ZM1747.66 375.5V356.14L1816.52 355.92V375.28L1747.66 375.5ZM1747.66 305.76V286.4H1820.26V305.76H1747.66ZM1853.13 447V286.4H1874.25V447H1853.13ZM1836.85 303.12V286.4H1874.25V303.12H1836.85ZM1968.88 450.96C1958.62 450.96 1949.6 449.2 1941.82 445.68C1934.05 442.16 1927.45 437.54 1922.02 431.82C1916.74 425.953 1912.71 419.427 1909.92 412.24C1907.28 405.053 1905.96 397.72 1905.96 390.24V386.28C1905.96 378.8 1907.36 371.467 1910.14 364.28C1912.93 356.947 1917.04 350.42 1922.46 344.7C1927.89 338.833 1934.49 334.213 1942.26 330.84C1950.04 327.32 1958.91 325.56 1968.88 325.56C1978.86 325.56 1987.73 327.32 1995.5 330.84C2003.28 334.213 2009.88 338.833 2015.3 344.7C2020.73 350.42 2024.84 356.947 2027.62 364.28C2030.41 371.467 2031.8 378.8 2031.8 386.28V390.24C2031.8 397.72 2030.41 405.053 2027.62 412.24C2024.98 419.427 2020.95 425.953 2015.52 431.82C2010.24 437.54 2003.72 442.16 1995.94 445.68C1988.17 449.2 1979.15 450.96 1968.88 450.96ZM1968.88 432.04C1977.68 432.04 1985.16 430.133 1991.32 426.32C1997.63 422.36 2002.4 417.08 2005.62 410.48C2009 403.88 2010.68 396.473 2010.68 388.26C2010.68 379.9 2009 372.42 2005.62 365.82C2002.25 359.22 1997.41 354.013 1991.1 350.2C1984.94 346.387 1977.54 344.48 1968.88 344.48C1960.38 344.48 1952.97 346.387 1946.66 350.2C1940.36 354.013 1935.52 359.22 1932.14 365.82C1928.77 372.42 1927.08 379.9 1927.08 388.26C1927.08 396.473 1928.7 403.88 1931.92 410.48C1935.3 417.08 1940.06 422.36 1946.22 426.32C1952.53 430.133 1960.08 432.04 1968.88 432.04ZM2095.61 447L2119.37 333.48H2147.97L2175.69 447H2157.65L2129.93 333.92H2136.97L2112.99 447H2095.61ZM2084.83 447V430.28H2109.25V447H2084.83ZM2079.99 447L2046.77 329.52H2067.01L2099.35 447H2079.99ZM2162.05 447V430.28H2186.47V447H2162.05ZM2171.95 447L2200.11 329.52H2219.25L2190.43 447H2171.95Z" fill="url(#paint1_linear_8_209)"/>
<path d="M404.826 374.825H334.447C350.944 299.625 403.78 278.492 428.136 277.325H736.099C714.582 332.125 679.916 351.492 665.272 354.325H428.136C418.095 354.325 408.412 367.992 404.826 374.825Z" fill="url(#paint2_linear_8_209)"/>
<path d="M947.512 342.325V325.325H937.202V282.825H947.512V261.825H956.477V282.825H966.788V325.325H956.477V342.325H947.512Z" fill="url(#paint3_linear_8_209)"/>
<path d="M308 462.325C319.834 426.725 348.493 418.825 361.344 419.325H571.135C559.48 443.992 528.639 493.325 498.515 493.325C468.391 493.325 416.033 494.325 393.62 494.825C387.941 494.659 374.702 498.725 367.171 516.325C359.641 533.925 354.172 552.325 352.379 559.325H523.618C554.391 557.755 573.327 531.989 607.445 499.825C648.096 456.119 668.025 453.469 692.617 453.825C715.057 453.469 737.11 456.119 774.203 499.825C814.277 541.901 829.34 560.325 853.098 559.325C863.409 559.325 891.202 559.325 914.512 499.825L1016.27 278.825L988.925 263.825C1013.28 245.825 1062.89 209.225 1066.48 206.825C1070.06 204.425 1072.45 207.825 1073.2 209.825V314.825L1048.1 296.325C1013.88 374.159 949.477 522.125 931.546 559.325C913.615 596.525 878.799 619.659 862.96 619.325C839.202 620.325 814.277 619.401 774.203 577.325C737.11 533.619 715.057 515.969 692.617 516.325C668.025 515.969 648.096 532.619 607.445 576.325C573.327 608.489 554.391 624.755 523.618 626.325H256C268.402 586.492 296.165 497.925 308 462.325Z" fill="url(#paint4_linear_8_209)"/>
<path d="M842.168 512.325H834.099V491.825H821.099V428.325H834.099V395.825H842.168V428.325H853.823V491.825H842.168V512.325Z" fill="url(#paint5_linear_8_209)"/>
<path d="M901.96 443.325H892.098V415.825H875.96V327.325H892.098V296.825H901.96V327.325H916.305V415.825H901.96V443.325Z" fill="url(#paint6_linear_8_209)"/>
<defs>
<linearGradient id="paint0_linear_8_209" x1="1565" y1="626.5" x2="1840" y2="626.5" gradientUnits="userSpaceOnUse">
<stop stop-color="#B770FF"/>
<stop offset="1" stop-color="#8000FF"/>
</linearGradient>
<linearGradient id="paint1_linear_8_209" x1="1143" y1="375.5" x2="2262" y2="375.5" gradientUnits="userSpaceOnUse">
<stop stop-color="#D8BFFF"/>
<stop offset="0.745192" stop-color="#963BFF"/>
<stop offset="1" stop-color="#8000FF"/>
</linearGradient>
<linearGradient id="paint2_linear_8_209" x1="533.307" y1="365.889" x2="510.571" y2="283.572" gradientUnits="userSpaceOnUse">
<stop stop-color="#6D28D9"/>
<stop offset="0.501022" stop-color="#8B5CF6"/>
<stop offset="1" stop-color="#A855F7"/>
</linearGradient>
<linearGradient id="paint3_linear_8_209" x1="1032.1" y1="342.8" x2="962.422" y2="391.739" gradientUnits="userSpaceOnUse">
<stop stop-color="#6D28D9"/>
<stop offset="1" stop-color="#A855F7"/>
</linearGradient>
<linearGradient id="paint4_linear_8_209" x1="660.6" y1="587.8" x2="494.1" y2="303.3" gradientUnits="userSpaceOnUse">
<stop stop-color="#6D28D9"/>
<stop offset="0.501022" stop-color="#8B5CF6"/>
<stop offset="1" stop-color="#A855F7"/>
</linearGradient>
<linearGradient id="paint5_linear_8_209" x1="660.6" y1="587.8" x2="494.1" y2="303.3" gradientUnits="userSpaceOnUse">
<stop stop-color="#6D28D9"/>
<stop offset="0.501022" stop-color="#8B5CF6"/>
<stop offset="1" stop-color="#A855F7"/>
</linearGradient>
<linearGradient id="paint6_linear_8_209" x1="660.6" y1="587.8" x2="494.1" y2="303.3" gradientUnits="userSpaceOnUse">
<stop stop-color="#6D28D9"/>
<stop offset="0.501022" stop-color="#8B5CF6"/>
<stop offset="1" stop-color="#A855F7"/>
</linearGradient>
</defs>
</svg>
