<svg width="2545" height="831" viewBox="0 0 2545 831" fill="none" xmlns="http://www.w3.org/2000/svg">
<rect width="2545" height="831" rx="255" fill="black"/>
<path d="M1579 623C1577.9 623 1577 623.895 1577 625C1577 626.105 1577.9 627 1579 627V625V623ZM1843.33 625C1843.33 630.891 1848.11 635.667 1854 635.667C1859.89 635.667 1864.67 630.891 1864.67 625C1864.67 619.109 1859.89 614.333 1854 614.333C1848.11 614.333 1843.33 619.109 1843.33 625ZM1579 625V627H1854V625V623H1579V625Z" fill="url(#paint0_linear_8_114)"/>
<path d="M1120.95 534.75H1111.25V566H1107.75V534.75H1098V531.1H1120.95V534.75ZM1143.25 551.1V566H1139.75V531.1H1150.3C1153 531.1 1155.05 531.983 1156.45 533.75C1157.88 535.517 1158.6 537.983 1158.6 541.15C1158.6 543.95 1157.98 546.217 1156.75 547.95C1155.52 549.65 1153.75 550.633 1151.45 550.9L1158.85 566H1154.95L1147.85 551.1H1143.25ZM1143.25 547.55H1150.25C1151.68 547.55 1152.82 547.117 1153.65 546.25C1154.48 545.35 1154.9 544.083 1154.9 542.45V539.85C1154.9 538.217 1154.48 536.967 1153.65 536.1C1152.82 535.2 1151.68 534.75 1150.25 534.75H1143.25V547.55ZM1198.75 566H1195L1192.55 556.05H1182.35L1179.9 566H1176.25L1185.2 531.1H1189.8L1198.75 566ZM1191.75 552.4L1187.65 535.55H1187.25L1183.2 552.4H1191.75ZM1217.95 566V531.1H1226.05C1229.58 531.1 1232.23 532.583 1234 535.55C1235.77 538.483 1236.65 542.817 1236.65 548.55C1236.65 554.283 1235.77 558.633 1234 561.6C1232.23 564.533 1229.58 566 1226.05 566H1217.95ZM1221.45 562.35H1225.9C1228.2 562.35 1229.95 561.383 1231.15 559.45C1232.35 557.483 1232.95 554.75 1232.95 551.25V545.85C1232.95 542.35 1232.35 539.633 1231.15 537.7C1229.95 535.733 1228.2 534.75 1225.9 534.75H1221.45V562.35ZM1274.65 566H1256.75V531.1H1274.65V534.75H1260.25V546.5H1274.15V550.15H1260.25V562.35H1274.65V566ZM1327.25 566H1322.25L1319.95 531.1H1323.05L1324.25 551.1L1324.9 561.65H1325.25L1329.05 540.2H1333L1336.8 561.65H1337.15L1337.75 551.1L1339 531.1H1342L1339.75 566H1334.7L1331.15 545.15H1330.8L1327.25 566ZM1379 566H1361V562.65H1368.25V534.45H1361V531.1H1379V534.45H1371.75V562.65H1379V566ZM1420.45 534.75H1410.75V566H1407.25V534.75H1397.5V531.1H1420.45V534.75ZM1453.65 566V550.15H1442.3V566H1438.8V531.1H1442.3V546.5H1453.65V531.1H1457.15V566H1453.65ZM1508.25 551.1V566H1504.75V531.1H1515.3C1518 531.1 1520.05 531.983 1521.45 533.75C1522.88 535.517 1523.6 537.983 1523.6 541.15C1523.6 543.95 1522.98 546.217 1521.75 547.95C1520.52 549.65 1518.75 550.633 1516.45 550.9L1523.85 566H1519.95L1512.85 551.1H1508.25ZM1508.25 547.55H1515.25C1516.68 547.55 1517.82 547.117 1518.65 546.25C1519.48 545.35 1519.9 544.083 1519.9 542.45V539.85C1519.9 538.217 1519.48 536.967 1518.65 536.1C1517.82 535.2 1516.68 534.75 1515.25 534.75H1508.25V547.55ZM1543.3 531.1H1546.8V552.05C1546.8 554.283 1546.88 556.217 1547.05 557.85C1547.25 559.483 1547.75 560.75 1548.55 561.65C1549.35 562.517 1550.67 562.95 1552.5 562.95C1554.3 562.95 1555.6 562.517 1556.4 561.65C1557.2 560.75 1557.68 559.483 1557.85 557.85C1558.05 556.217 1558.15 554.283 1558.15 552.05V531.1H1561.65V551.05C1561.65 553.65 1561.53 555.917 1561.3 557.85C1561.1 559.783 1560.68 561.4 1560.05 562.7C1559.42 564 1558.48 564.983 1557.25 565.65C1556.05 566.283 1554.47 566.6 1552.5 566.6C1550.5 566.6 1548.88 566.283 1547.65 565.65C1546.45 564.983 1545.53 564 1544.9 562.7C1544.27 561.4 1543.83 559.783 1543.6 557.85C1543.4 555.917 1543.3 553.65 1543.3 551.05V531.1ZM1601.25 566H1584V531.1H1587.5V562.35H1601.25V566ZM1639.65 566H1621.75V531.1H1639.65V534.75H1625.25V546.5H1639.15V550.15H1625.25V562.35H1639.65V566ZM1669.4 566.6C1666.8 566.6 1664.67 566.033 1663 564.9C1661.33 563.733 1659.95 562.25 1658.85 560.45L1661.4 557.95C1662.53 559.65 1663.73 560.917 1665 561.75C1666.27 562.583 1667.77 563 1669.5 563C1671.6 563 1673.2 562.417 1674.3 561.25C1675.43 560.083 1676 558.45 1676 556.35C1676 554.65 1675.58 553.333 1674.75 552.4C1673.95 551.433 1672.57 550.75 1670.6 550.35L1667.35 549.7C1665.45 549.3 1663.95 548.633 1662.85 547.7C1661.75 546.767 1660.97 545.65 1660.5 544.35C1660.07 543.05 1659.85 541.667 1659.85 540.2C1659.85 537 1660.72 534.583 1662.45 532.95C1664.22 531.317 1666.58 530.5 1669.55 530.5C1671.88 530.5 1673.85 530.983 1675.45 531.95C1677.05 532.883 1678.33 534.183 1679.3 535.85L1676.85 538.4C1676.05 537.133 1675.08 536.1 1673.95 535.3C1672.82 534.5 1671.33 534.1 1669.5 534.1C1667.57 534.1 1666.07 534.617 1665 535.65C1663.93 536.65 1663.4 538.133 1663.4 540.1C1663.4 541.633 1663.78 542.9 1664.55 543.9C1665.35 544.9 1666.78 545.617 1668.85 546.05L1672 546.7C1673.9 547.1 1675.4 547.767 1676.5 548.7C1677.6 549.633 1678.38 550.75 1678.85 552.05C1679.32 553.317 1679.55 554.717 1679.55 556.25C1679.55 559.483 1678.67 562.017 1676.9 563.85C1675.13 565.683 1672.63 566.6 1669.4 566.6ZM1704.5 573.05L1706.7 559.2H1712.05L1707.25 573.05H1704.5ZM1778.2 566L1768.25 536.6H1768V566H1764.8V531.1H1769.75L1779.7 560.5H1780V531.1H1783.15V566H1778.2ZM1813 566.6C1809.43 566.6 1806.83 565.017 1805.2 561.85C1803.6 558.683 1802.8 554.25 1802.8 548.55C1802.8 542.85 1803.6 538.417 1805.2 535.25C1806.83 532.083 1809.43 530.5 1813 530.5C1816.53 530.5 1819.1 532.083 1820.7 535.25C1822.33 538.417 1823.15 542.85 1823.15 548.55C1823.15 554.25 1822.33 558.683 1820.7 561.85C1819.1 565.017 1816.53 566.6 1813 566.6ZM1813 562.95C1815.3 562.95 1816.95 561.9 1817.95 559.8C1818.95 557.7 1819.45 554.9 1819.45 551.4V545.7C1819.45 542.2 1818.95 539.4 1817.95 537.3C1816.95 535.2 1815.3 534.15 1813 534.15C1810.67 534.15 1809 535.2 1808 537.3C1807 539.4 1806.5 542.2 1806.5 545.7V551.4C1806.5 554.9 1807 557.7 1808 559.8C1809 561.9 1810.67 562.95 1813 562.95ZM1863.45 534.75H1853.75V566H1850.25V534.75H1840.5V531.1H1863.45V534.75ZM1926.65 566H1908.75V531.1H1926.65V534.75H1912.25V546.5H1926.15V550.15H1912.25V562.35H1926.65V566ZM1962.95 566V548.5V537.45H1962.6L1956.5 555.4L1950.35 537.45H1950V548.5V566H1946.8V531.1H1951.3L1956.45 546.5H1956.7L1961.8 531.1H1966.15V566H1962.95ZM1995.5 566.6C1991.93 566.6 1989.33 565.017 1987.7 561.85C1986.1 558.683 1985.3 554.25 1985.3 548.55C1985.3 542.85 1986.1 538.417 1987.7 535.25C1989.33 532.083 1991.93 530.5 1995.5 530.5C1999.03 530.5 2001.6 532.083 2003.2 535.25C2004.83 538.417 2005.65 542.85 2005.65 548.55C2005.65 554.25 2004.83 558.683 2003.2 561.85C2001.6 565.017 1999.03 566.6 1995.5 566.6ZM1995.5 562.95C1997.8 562.95 1999.45 561.9 2000.45 559.8C2001.45 557.7 2001.95 554.9 2001.95 551.4V545.7C2001.95 542.2 2001.45 539.4 2000.45 537.3C1999.45 535.2 1997.8 534.15 1995.5 534.15C1993.17 534.15 1991.5 535.2 1990.5 537.3C1989.5 539.4 1989 542.2 1989 545.7V551.4C1989 554.9 1989.5 557.7 1990.5 559.8C1991.5 561.9 1993.17 562.95 1995.5 562.95ZM2045.95 534.75H2036.25V566H2032.75V534.75H2023V531.1H2045.95V534.75ZM2082.5 566H2064.5V562.65H2071.75V534.45H2064.5V531.1H2082.5V534.45H2075.25V562.65H2082.5V566ZM2112.5 566.6C2108.93 566.6 2106.33 565.017 2104.7 561.85C2103.1 558.683 2102.3 554.25 2102.3 548.55C2102.3 542.85 2103.1 538.417 2104.7 535.25C2106.33 532.083 2108.93 530.5 2112.5 530.5C2116.03 530.5 2118.6 532.083 2120.2 535.25C2121.83 538.417 2122.65 542.85 2122.65 548.55C2122.65 554.25 2121.83 558.683 2120.2 561.85C2118.6 565.017 2116.03 566.6 2112.5 566.6ZM2112.5 562.95C2114.8 562.95 2116.45 561.9 2117.45 559.8C2118.45 557.7 2118.95 554.9 2118.95 551.4V545.7C2118.95 542.2 2118.45 539.4 2117.45 537.3C2116.45 535.2 2114.8 534.15 2112.5 534.15C2110.17 534.15 2108.5 535.2 2107.5 537.3C2106.5 539.4 2106 542.2 2106 545.7V551.4C2106 554.9 2106.5 557.7 2107.5 559.8C2108.5 561.9 2110.17 562.95 2112.5 562.95ZM2155.7 566L2145.75 536.6H2145.5V566H2142.3V531.1H2147.25L2157.2 560.5H2157.5V531.1H2160.65V566H2155.7ZM2190.4 566.6C2187.8 566.6 2185.67 566.033 2184 564.9C2182.33 563.733 2180.95 562.25 2179.85 560.45L2182.4 557.95C2183.53 559.65 2184.73 560.917 2186 561.75C2187.27 562.583 2188.77 563 2190.5 563C2192.6 563 2194.2 562.417 2195.3 561.25C2196.43 560.083 2197 558.45 2197 556.35C2197 554.65 2196.58 553.333 2195.75 552.4C2194.95 551.433 2193.57 550.75 2191.6 550.35L2188.35 549.7C2186.45 549.3 2184.95 548.633 2183.85 547.7C2182.75 546.767 2181.97 545.65 2181.5 544.35C2181.07 543.05 2180.85 541.667 2180.85 540.2C2180.85 537 2181.72 534.583 2183.45 532.95C2185.22 531.317 2187.58 530.5 2190.55 530.5C2192.88 530.5 2194.85 530.983 2196.45 531.95C2198.05 532.883 2199.33 534.183 2200.3 535.85L2197.85 538.4C2197.05 537.133 2196.08 536.1 2194.95 535.3C2193.82 534.5 2192.33 534.1 2190.5 534.1C2188.57 534.1 2187.07 534.617 2186 535.65C2184.93 536.65 2184.4 538.133 2184.4 540.1C2184.4 541.633 2184.78 542.9 2185.55 543.9C2186.35 544.9 2187.78 545.617 2189.85 546.05L2193 546.7C2194.9 547.1 2196.4 547.767 2197.5 548.7C2198.6 549.633 2199.38 550.75 2199.85 552.05C2200.32 553.317 2200.55 554.717 2200.55 556.25C2200.55 559.483 2199.67 562.017 2197.9 563.85C2196.13 565.683 2193.63 566.6 2190.4 566.6ZM2229.5 566.45C2228.37 566.45 2227.57 566.167 2227.1 565.6C2226.63 565 2226.4 564.283 2226.4 563.45V562.55C2226.4 561.683 2226.63 560.967 2227.1 560.4C2227.57 559.833 2228.37 559.55 2229.5 559.55C2230.6 559.55 2231.38 559.833 2231.85 560.4C2232.32 560.967 2232.55 561.683 2232.55 562.55V563.45C2232.55 564.283 2232.32 565 2231.85 565.6C2231.38 566.167 2230.6 566.45 2229.5 566.45Z" fill="white"/>
<path d="M1180.32 446V285.4H1201.88V446H1180.32ZM1197.48 446V426.64H1275.36V446H1197.48ZM1197.48 374.06V354.7H1268.54V374.06H1197.48ZM1197.48 304.76V285.4H1273.16V304.76H1197.48ZM1355.64 449.96C1347.28 449.96 1339.58 448.42 1332.54 445.34C1325.5 442.26 1319.34 437.933 1314.06 432.36C1308.92 426.787 1304.89 420.333 1301.96 413C1299.17 405.667 1297.78 397.747 1297.78 389.24V385.28C1297.78 376.92 1299.17 369.073 1301.96 361.74C1304.74 354.407 1308.63 347.953 1313.62 342.38C1318.75 336.807 1324.76 332.48 1331.66 329.4C1338.7 326.173 1346.47 324.56 1354.98 324.56C1363.92 324.56 1372.06 326.467 1379.4 330.28C1386.73 333.947 1392.74 339.74 1397.44 347.66C1402.13 355.58 1404.77 365.847 1405.36 378.46L1396.56 364.38V285.4H1417.68V446H1400.96V393.86H1407.12C1406.53 407.207 1403.74 418.06 1398.76 426.42C1393.77 434.633 1387.46 440.647 1379.84 444.46C1372.36 448.127 1364.29 449.96 1355.64 449.96ZM1358.5 431.48C1365.68 431.48 1372.21 429.867 1378.08 426.64C1383.94 423.413 1388.64 418.793 1392.16 412.78C1395.68 406.62 1397.44 399.433 1397.44 391.22V381.1C1397.44 373.033 1395.6 366.213 1391.94 360.64C1388.42 354.92 1383.65 350.593 1377.64 347.66C1371.77 344.58 1365.32 343.04 1358.28 343.04C1350.5 343.04 1343.61 344.873 1337.6 348.54C1331.73 352.207 1327.11 357.34 1323.74 363.94C1320.51 370.54 1318.9 378.313 1318.9 387.26C1318.9 396.207 1320.58 404.053 1323.96 410.8C1327.33 417.4 1332.02 422.533 1338.04 426.2C1344.05 429.72 1350.87 431.48 1358.5 431.48ZM1502.7 491.76C1497.27 491.76 1491.77 491.54 1486.2 491.1C1480.77 490.66 1475.56 490.073 1470.58 489.34V471.52C1475.86 472.253 1481.36 472.84 1487.08 473.28C1492.94 473.867 1498.44 474.16 1503.58 474.16C1514.28 474.16 1522.79 472.693 1529.1 469.76C1535.55 466.973 1540.17 462.5 1542.96 456.34C1545.89 450.327 1547.36 442.553 1547.36 433.02V410.58L1554.4 393.86C1553.96 405.74 1551.46 415.64 1546.92 423.56C1542.37 431.333 1536.43 437.2 1529.1 441.16C1521.91 444.973 1513.92 446.88 1505.12 446.88C1496.9 446.88 1489.35 445.34 1482.46 442.26C1475.71 439.033 1469.84 434.633 1464.86 429.06C1460.02 423.487 1456.2 417.107 1453.42 409.92C1450.78 402.587 1449.46 394.887 1449.46 386.82V382.86C1449.46 374.647 1450.85 367.02 1453.64 359.98C1456.42 352.793 1460.31 346.56 1465.3 341.28C1470.28 336 1476.22 331.893 1483.12 328.96C1490.16 326.027 1497.86 324.56 1506.22 324.56C1516.04 324.56 1524.7 326.687 1532.18 330.94C1539.66 335.047 1545.52 341.133 1549.78 349.2C1554.18 357.12 1556.6 366.873 1557.04 378.46L1550.88 378.68V328.52H1567.6V432.14C1567.6 446.22 1565.4 457.587 1561 466.24C1556.74 475.04 1549.85 481.493 1540.32 485.6C1530.93 489.707 1518.39 491.76 1502.7 491.76ZM1509.08 427.52C1516.12 427.52 1522.5 425.98 1528.22 422.9C1534.08 419.82 1538.7 415.42 1542.08 409.7C1545.6 403.833 1547.36 396.867 1547.36 388.8V378.68C1547.36 370.76 1545.52 364.087 1541.86 358.66C1538.34 353.233 1533.72 349.127 1528 346.34C1522.28 343.553 1516.04 342.16 1509.3 342.16C1501.67 342.16 1494.92 343.92 1489.06 347.44C1483.19 350.96 1478.64 355.947 1475.42 362.4C1472.19 368.707 1470.58 376.187 1470.58 384.84C1470.58 393.493 1472.19 401.047 1475.42 407.5C1478.79 413.953 1483.34 418.94 1489.06 422.46C1494.92 425.833 1501.6 427.52 1509.08 427.52ZM1656.65 449.96C1646.39 449.96 1637.51 448.2 1630.03 444.68C1622.55 441.16 1616.47 436.54 1611.77 430.82C1607.08 424.953 1603.56 418.427 1601.21 411.24C1599.01 404.053 1597.91 396.72 1597.91 389.24V385.28C1597.91 377.653 1599.01 370.247 1601.21 363.06C1603.56 355.873 1607.08 349.42 1611.77 343.7C1616.47 337.833 1622.41 333.213 1629.59 329.84C1636.93 326.32 1645.51 324.56 1655.33 324.56C1668.09 324.56 1678.58 327.347 1686.79 332.92C1695.15 338.347 1701.31 345.387 1705.27 354.04C1709.38 362.693 1711.43 371.933 1711.43 381.76V391.22H1607.15V375.38H1696.03L1691.19 383.96C1691.19 375.6 1689.87 368.413 1687.23 362.4C1684.59 356.24 1680.63 351.473 1675.35 348.1C1670.07 344.727 1663.4 343.04 1655.33 343.04C1646.97 343.04 1640.01 344.947 1634.43 348.76C1629.01 352.573 1624.9 357.78 1622.11 364.38C1619.47 370.98 1618.15 378.607 1618.15 387.26C1618.15 395.62 1619.47 403.173 1622.11 409.92C1624.9 416.52 1629.15 421.8 1634.87 425.76C1640.59 429.573 1647.85 431.48 1656.65 431.48C1665.89 431.48 1673.37 429.427 1679.09 425.32C1684.96 421.213 1688.48 416.447 1689.65 411.02H1709.45C1707.84 419.087 1704.61 426.053 1699.77 431.92C1694.93 437.787 1688.85 442.26 1681.51 445.34C1674.18 448.42 1665.89 449.96 1656.65 449.96Z" fill="white"/>
<path d="M1744.5 446V285.4H1766.06V446H1744.5ZM1761.66 374.5V355.14L1830.52 354.92V374.28L1761.66 374.5ZM1761.66 304.76V285.4H1834.26V304.76H1761.66ZM1867.13 446V285.4H1888.25V446H1867.13ZM1850.85 302.12V285.4H1888.25V302.12H1850.85ZM1982.88 449.96C1972.62 449.96 1963.6 448.2 1955.82 444.68C1948.05 441.16 1941.45 436.54 1936.02 430.82C1930.74 424.953 1926.71 418.427 1923.92 411.24C1921.28 404.053 1919.96 396.72 1919.96 389.24V385.28C1919.96 377.8 1921.36 370.467 1924.14 363.28C1926.93 355.947 1931.04 349.42 1936.46 343.7C1941.89 337.833 1948.49 333.213 1956.26 329.84C1964.04 326.32 1972.91 324.56 1982.88 324.56C1992.86 324.56 2001.73 326.32 2009.5 329.84C2017.28 333.213 2023.88 337.833 2029.3 343.7C2034.73 349.42 2038.84 355.947 2041.62 363.28C2044.41 370.467 2045.8 377.8 2045.8 385.28V389.24C2045.8 396.72 2044.41 404.053 2041.62 411.24C2038.98 418.427 2034.95 424.953 2029.52 430.82C2024.24 436.54 2017.72 441.16 2009.94 444.68C2002.17 448.2 1993.15 449.96 1982.88 449.96ZM1982.88 431.04C1991.68 431.04 1999.16 429.133 2005.32 425.32C2011.63 421.36 2016.4 416.08 2019.62 409.48C2023 402.88 2024.68 395.473 2024.68 387.26C2024.68 378.9 2023 371.42 2019.62 364.82C2016.25 358.22 2011.41 353.013 2005.1 349.2C1998.94 345.387 1991.54 343.48 1982.88 343.48C1974.38 343.48 1966.97 345.387 1960.66 349.2C1954.36 353.013 1949.52 358.22 1946.14 364.82C1942.77 371.42 1941.08 378.9 1941.08 387.26C1941.08 395.473 1942.7 402.88 1945.92 409.48C1949.3 416.08 1954.06 421.36 1960.22 425.32C1966.53 429.133 1974.08 431.04 1982.88 431.04ZM2109.61 446L2133.37 332.48H2161.97L2189.69 446H2171.65L2143.93 332.92H2150.97L2126.99 446H2109.61ZM2098.83 446V429.28H2123.25V446H2098.83ZM2093.99 446L2060.77 328.52H2081.01L2113.35 446H2093.99ZM2176.05 446V429.28H2200.47V446H2176.05ZM2185.95 446L2214.11 328.52H2233.25L2204.43 446H2185.95Z" fill="url(#paint1_linear_8_114)"/>
<path d="M418.826 373.825H348.447C364.944 298.625 417.78 277.492 442.136 276.325H750.099C728.582 331.125 693.916 350.492 679.272 353.325H442.136C432.095 353.325 422.412 366.992 418.826 373.825Z" fill="url(#paint2_linear_8_114)"/>
<path d="M961.512 341.325V324.325H951.202V281.825H961.512V260.825H970.477V281.825H980.788V324.325H970.477V341.325H961.512Z" fill="url(#paint3_linear_8_114)"/>
<path d="M322 461.325C333.834 425.725 362.493 417.825 375.344 418.325H585.135C573.48 442.992 542.639 492.325 512.515 492.325C482.391 492.325 430.033 493.325 407.62 493.825C401.941 493.659 388.702 497.725 381.171 515.325C373.641 532.925 368.172 551.325 366.379 558.325H537.618C568.391 556.755 587.327 530.989 621.445 498.825C662.096 455.119 682.025 452.469 706.617 452.825C729.057 452.469 751.11 455.119 788.203 498.825C828.277 540.901 843.34 559.325 867.098 558.325C877.409 558.325 905.202 558.325 928.512 498.825L1030.27 277.825L1002.92 262.825C1027.28 244.825 1076.89 208.225 1080.48 205.825C1084.06 203.425 1086.45 206.825 1087.2 208.825V313.825L1062.1 295.325C1027.88 373.159 963.477 521.125 945.546 558.325C927.615 595.525 892.799 618.659 876.96 618.325C853.202 619.325 828.277 618.401 788.203 576.325C751.11 532.619 729.057 514.969 706.617 515.325C682.025 514.969 662.096 531.619 621.445 575.325C587.327 607.489 568.391 623.755 537.618 625.325H270C282.402 585.492 310.165 496.925 322 461.325Z" fill="url(#paint4_linear_8_114)"/>
<path d="M856.168 511.325H848.099V490.825H835.099V427.325H848.099V394.825H856.168V427.325H867.823V490.825H856.168V511.325Z" fill="url(#paint5_linear_8_114)"/>
<path d="M915.96 442.325H906.098V414.825H889.96V326.325H906.098V295.825H915.96V326.325H930.305V414.825H915.96V442.325Z" fill="url(#paint6_linear_8_114)"/>
<defs>
<linearGradient id="paint0_linear_8_114" x1="1579" y1="625.5" x2="1854" y2="625.5" gradientUnits="userSpaceOnUse">
<stop stop-color="#B770FF"/>
<stop offset="1" stop-color="#8000FF"/>
</linearGradient>
<linearGradient id="paint1_linear_8_114" x1="1157" y1="374.5" x2="2276" y2="374.5" gradientUnits="userSpaceOnUse">
<stop stop-color="#D8BFFF"/>
<stop offset="0.745192" stop-color="#963BFF"/>
<stop offset="1" stop-color="#8000FF"/>
</linearGradient>
<linearGradient id="paint2_linear_8_114" x1="448.516" y1="283.934" x2="503.817" y2="386.85" gradientUnits="userSpaceOnUse">
<stop stop-color="#6D28D9"/>
<stop offset="0.5" stop-color="#8B5CF6"/>
<stop offset="1" stop-color="#A855F7"/>
</linearGradient>
<linearGradient id="paint3_linear_8_114" x1="958.573" y1="267.107" x2="976.267" y2="270.045" gradientUnits="userSpaceOnUse">
<stop stop-color="#6D28D9"/>
<stop offset="0.5" stop-color="#8B5CF6"/>
<stop offset="1" stop-color="#A855F7"/>
</linearGradient>
<linearGradient id="paint4_linear_8_114" x1="473.6" y1="237.8" x2="757.1" y2="486.8" gradientUnits="userSpaceOnUse">
<stop stop-color="#6D28D9"/>
<stop offset="0.5" stop-color="#8B5CF6"/>
<stop offset="1" stop-color="#A855F7"/>
</linearGradient>
<linearGradient id="paint5_linear_8_114" x1="473.6" y1="237.8" x2="757.1" y2="486.8" gradientUnits="userSpaceOnUse">
<stop stop-color="#6D28D9"/>
<stop offset="0.5" stop-color="#8B5CF6"/>
<stop offset="1" stop-color="#A855F7"/>
</linearGradient>
<linearGradient id="paint6_linear_8_114" x1="473.6" y1="237.8" x2="757.1" y2="486.8" gradientUnits="userSpaceOnUse">
<stop stop-color="#6D28D9"/>
<stop offset="0.5" stop-color="#8B5CF6"/>
<stop offset="1" stop-color="#A855F7"/>
</linearGradient>
</defs>
</svg>
