<svg width="1053" height="207" viewBox="0 0 1053 207" fill="none" xmlns="http://www.w3.org/2000/svg">
<path d="M-6.69956e-05 160.6V-2.86102e-05H21.5599V160.6H-6.69956e-05ZM17.1599 160.6V141.24H95.0399V160.6H17.1599ZM17.1599 88.66V69.3H88.2199V88.66H17.1599ZM17.1599 19.36V-2.86102e-05H92.8399V19.36H17.1599ZM175.316 164.56C166.956 164.56 159.256 163.02 152.216 159.94C145.176 156.86 139.016 152.533 133.736 146.96C128.603 141.387 124.569 134.933 121.636 127.6C118.849 120.267 117.456 112.347 117.456 103.84V99.88C117.456 91.52 118.849 83.6733 121.636 76.34C124.423 69.0066 128.309 62.5533 133.296 56.98C138.429 51.4066 144.443 47.08 151.336 44C158.376 40.7733 166.149 39.16 174.656 39.16C183.603 39.16 191.743 41.0666 199.076 44.88C206.409 48.5466 212.423 54.34 217.116 62.26C221.809 70.18 224.449 80.4466 225.036 93.06L216.236 78.98V-2.86102e-05H237.356V160.6H220.636V108.46H226.796C226.209 121.807 223.423 132.66 218.436 141.02C213.449 149.233 207.143 155.247 199.516 159.06C192.036 162.727 183.969 164.56 175.316 164.56ZM178.176 146.08C185.363 146.08 191.889 144.467 197.756 141.24C203.623 138.013 208.316 133.393 211.836 127.38C215.356 121.22 217.116 114.033 217.116 105.82V95.7C217.116 87.6333 215.283 80.8133 211.616 75.24C208.096 69.52 203.329 65.1933 197.316 62.26C191.449 59.18 184.996 57.64 177.956 57.64C170.183 57.64 163.289 59.4733 157.276 63.14C151.409 66.8066 146.789 71.94 143.416 78.54C140.189 85.14 138.576 92.9133 138.576 101.86C138.576 110.807 140.263 118.653 143.636 125.4C147.009 132 151.703 137.133 157.716 140.8C163.729 144.32 170.549 146.08 178.176 146.08ZM322.376 206.36C316.949 206.36 311.449 206.14 305.876 205.7C300.449 205.26 295.242 204.673 290.256 203.94V186.12C295.536 186.853 301.036 187.44 306.756 187.88C312.622 188.467 318.122 188.76 323.256 188.76C333.962 188.76 342.469 187.293 348.776 184.36C355.229 181.573 359.849 177.1 362.636 170.94C365.569 164.927 367.036 157.153 367.036 147.62V125.18L374.076 108.46C373.636 120.34 371.142 130.24 366.596 138.16C362.049 145.933 356.109 151.8 348.776 155.76C341.589 159.573 333.596 161.48 324.796 161.48C316.582 161.48 309.029 159.94 302.136 156.86C295.389 153.633 289.522 149.233 284.536 143.66C279.696 138.087 275.882 131.707 273.096 124.52C270.456 117.187 269.136 109.487 269.136 101.42V97.46C269.136 89.2466 270.529 81.62 273.316 74.58C276.102 67.3933 279.989 61.16 284.976 55.88C289.962 50.6 295.902 46.4933 302.796 43.56C309.836 40.6266 317.536 39.16 325.896 39.16C335.722 39.16 344.376 41.2866 351.856 45.54C359.336 49.6466 365.202 55.7333 369.456 63.8C373.856 71.72 376.276 81.4733 376.716 93.06L370.556 93.28V43.12H387.276V146.74C387.276 160.82 385.076 172.187 380.676 180.84C376.422 189.64 369.529 196.093 359.996 200.2C350.609 204.307 338.069 206.36 322.376 206.36ZM328.756 142.12C335.796 142.12 342.176 140.58 347.896 137.5C353.762 134.42 358.382 130.02 361.756 124.3C365.276 118.433 367.036 111.467 367.036 103.4V93.28C367.036 85.36 365.202 78.6866 361.536 73.26C358.016 67.8333 353.396 63.7266 347.676 60.94C341.956 58.1533 335.722 56.76 328.976 56.76C321.349 56.76 314.602 58.52 308.736 62.04C302.869 65.56 298.322 70.5466 295.096 77C291.869 83.3066 290.256 90.7866 290.256 99.44C290.256 108.093 291.869 115.647 295.096 122.1C298.469 128.553 303.016 133.54 308.736 137.06C314.602 140.433 321.276 142.12 328.756 142.12ZM476.333 164.56C466.066 164.56 457.193 162.8 449.713 159.28C442.233 155.76 436.146 151.14 431.453 145.42C426.759 139.553 423.239 133.027 420.893 125.84C418.693 118.653 417.593 111.32 417.593 103.84V99.88C417.593 92.2533 418.693 84.8466 420.893 77.66C423.239 70.4733 426.759 64.02 431.453 58.3C436.146 52.4333 442.086 47.8133 449.273 44.44C456.606 40.92 465.186 39.16 475.013 39.16C487.773 39.16 498.259 41.9466 506.473 47.52C514.833 52.9466 520.993 59.9866 524.953 68.64C529.059 77.2933 531.113 86.5333 531.113 96.36V105.82H426.833V89.98H515.713L510.873 98.56C510.873 90.2 509.553 83.0133 506.913 77C504.273 70.84 500.313 66.0733 495.033 62.7C489.753 59.3266 483.079 57.64 475.013 57.64C466.653 57.64 459.686 59.5466 454.113 63.36C448.686 67.1733 444.579 72.38 441.793 78.98C439.153 85.58 437.833 93.2066 437.833 101.86C437.833 110.22 439.153 117.773 441.793 124.52C444.579 131.12 448.833 136.4 454.553 140.36C460.273 144.173 467.533 146.08 476.333 146.08C485.573 146.08 493.053 144.027 498.773 139.92C504.639 135.813 508.159 131.047 509.333 125.62H529.133C527.519 133.687 524.293 140.653 519.453 146.52C514.613 152.387 508.526 156.86 501.193 159.94C493.859 163.02 485.573 164.56 476.333 164.56Z" fill="black"/>
<path d="M564.18 160.6V-2.86102e-05H585.74V160.6H564.18ZM581.34 89.1V69.74L650.2 69.52V88.88L581.34 89.1ZM581.34 19.36V-2.86102e-05H653.94V19.36H581.34ZM686.814 160.6V-2.86102e-05H707.934V160.6H686.814ZM670.534 16.72V-2.86102e-05H707.934V16.72H670.534ZM802.563 164.56C792.297 164.56 783.277 162.8 775.503 159.28C767.73 155.76 761.13 151.14 755.703 145.42C750.423 139.553 746.39 133.027 743.603 125.84C740.963 118.653 739.643 111.32 739.643 103.84V99.88C739.643 92.4 741.037 85.0666 743.823 77.88C746.61 70.5466 750.717 64.02 756.143 58.3C761.57 52.4333 768.17 47.8133 775.943 44.44C783.717 40.92 792.59 39.16 802.563 39.16C812.537 39.16 821.41 40.92 829.183 44.44C836.957 47.8133 843.557 52.4333 848.983 58.3C854.41 64.02 858.517 70.5466 861.303 77.88C864.09 85.0666 865.483 92.4 865.483 99.88V103.84C865.483 111.32 864.09 118.653 861.303 125.84C858.663 133.027 854.63 139.553 849.203 145.42C843.923 151.14 837.397 155.76 829.623 159.28C821.85 162.8 812.83 164.56 802.563 164.56ZM802.563 145.64C811.363 145.64 818.843 143.733 825.003 139.92C831.31 135.96 836.077 130.68 839.303 124.08C842.677 117.48 844.363 110.073 844.363 101.86C844.363 93.5 842.677 86.02 839.303 79.42C835.93 72.82 831.09 67.6133 824.783 63.8C818.623 59.9866 811.217 58.08 802.563 58.08C794.057 58.08 786.65 59.9866 780.343 63.8C774.037 67.6133 769.197 72.82 765.823 79.42C762.45 86.02 760.763 93.5 760.763 101.86C760.763 110.073 762.377 117.48 765.603 124.08C768.977 130.68 773.743 135.96 779.903 139.92C786.21 143.733 793.763 145.64 802.563 145.64ZM929.287 160.6L953.047 47.08H981.647L1009.37 160.6H991.327L963.607 47.52H970.647L946.667 160.6H929.287ZM918.507 160.6V143.88H942.927V160.6H918.507ZM913.667 160.6L880.447 43.12H900.687L933.027 160.6H913.667ZM995.727 160.6V143.88H1020.15V160.6H995.727ZM1005.63 160.6L1033.79 43.12H1052.93L1024.11 160.6H1005.63Z" fill="url(#paint0_linear_8_169)"/>
<defs>
<linearGradient id="paint0_linear_8_169" x1="-23.3201" y1="89.1" x2="1095.68" y2="89.1" gradientUnits="userSpaceOnUse">
<stop stop-color="#D8BFFF"/>
<stop offset="0.745192" stop-color="#963BFF"/>
<stop offset="1" stop-color="#8000FF"/>
</linearGradient>
</defs>
</svg>
